# xmcd
#
# Track frame offsets: 
#        150
#        17472
#        46109
#        69294
#        85534
#        115033
#        138234
#        161583
#        176424
#        183734
#        197495
#        217342
#        237080
#
# Disc length: 3458 seconds
#
# Revision: 0
# Processed by: cddbd v1.5.2PL0 Copyright (c) Steve Scherf et al.
# Submitted via: ExactAudioCopy v1.3
#
DISCID=a20d800d
DTITLE=Tony Holliday - Porch Sessions
DYEAR=2018
DGENRE=Blues
TTITLE0=Pickpocket Fingers (feat. James Harman and Kid Ramos)
TTITLE1=The Call Me John Primer (feat. John Primer and Bob Corritore)
TTITLE2=A Woman Named Trouble (feat. Jack Friel and John Nemeth)
TTITLE3=Becky Ann (feat. Mitch Kashmar and Ronnie Shellist)
TTITLE4=That's Alright (feat. Charlie Musselwhite and Aki Kumar)
TTITLE5=Three Way Party (feat. Mitch Kashmar and Ronnie Shellist)
TTITLE6=Special Friend (feat. James Harman and Kid Ramos)
TTITLE7=Hip to It (feat. Mitch Kashmar and Ronnie Shellist)
TTITLE8=Blues Hit Big Town (feat. John Nemeth)
TTITLE9=Tell Me Baby (feat. John Primer and Bob Corritore)
TTITLE10=Going to Court (feat. James Harman and Kid Ramos)
TTITLE11=Coin Operated Woman (feat. Johnny Burgin)
TTITLE12=This Time I'm Gone for Good (feat. William G. Kidd and Ronnie S
TTITLE12=hellist)
EXTD=
EXTT0=
EXTT1=
EXTT2=
EXTT3=
EXTT4=
EXTT5=
EXTT6=
EXTT7=
EXTT8=
EXTT9=
EXTT10=
EXTT11=
EXTT12=
PLAYORDER=
